<svg xmlns="http://www.w3.org/2000/svg" width="25" height="25" viewBox="0 0 25 25">
  <g id="Component_14_1" data-name="Component 14 – 1" transform="translate(1 1)">
    <circle id="Ellipse_32" data-name="Ellipse 32" cx="11.5" cy="11.5" r="11.5" fill="none" stroke="#262626" stroke-linecap="round" stroke-linejoin="round" stroke-width="2"/>
    <path id="Path_1256" data-name="Path 1256" d="M62.451,67.229c-.859.115-1.432-1.146-2.12-1.375s-1.146-1.318-2.578-1.089-1.833,1.6-1.833,3.151,1.547,1.776,2.12,2.349-.115,2.75,0,3.9a1.765,1.765,0,0,0,.917,1.49s.63-1.089.458-1.547.688-1.375,1.6-1.6.516-1.547,1.26-1.547a1.038,1.038,0,0,0,1.031-1.375c-.172-.8.745-1.031.687-1.49A1.311,1.311,0,0,0,62.451,67.229Z" transform="translate(-49.806 -54.893)" fill="#262626"/>
    <path id="Path_1257" data-name="Path 1257" d="M49.551,53.1c.3,1.76,1.195.821,1.792,1.408a2.958,2.958,0,0,0,1.075.73s-.06-1.669-.717-1.9-.119-1.643,1.135-1.115,1.972-.469,2.33-1.408,1.852-1,2.211-1.7-1.972-.293-2.868-.587,2.091-.645.956-1.232a1.969,1.969,0,0,0-1.369-.1,11.949,11.949,0,0,0-4.518,3.625A4.61,4.61,0,0,0,49.551,53.1Z" transform="translate(-46.93 -45.4)" fill="#262626"/>
    <path id="Path_1258" data-name="Path 1258" d="M80.938,48.788c-.476.628.408,2.323,1.292,2.7s.408,1.57,1.36,3.641c.857,1.865,3.31,2.22,3.838,1.632a12.568,12.568,0,0,0-5.621-7.78C81.354,48.746,81.031,48.665,80.938,48.788Z" transform="translate(-64.949 -46.722)" fill="#262626"/>
  </g>
</svg>
