<svg xmlns="http://www.w3.org/2000/svg" xmlns:xlink="http://www.w3.org/1999/xlink" width="372.94" height="116.184" viewBox="0 0 372.94 116.184">
  <defs>
    <clipPath id="clip-path">
      <rect id="Rectangle_1457" data-name="Rectangle 1457" width="372.94" height="116.184" fill="none"/>
    </clipPath>
  </defs>
  <g id="Group_1073" data-name="Group 1073" transform="translate(-863.207 -239.233)">
    <g id="Group_1072" data-name="Group 1072" transform="translate(863.207 239.233)" clip-path="url(#clip-path)">
      <path id="Path_1195" data-name="Path 1195" d="M863.207,298.237a57.822,57.822,0,0,0,11.119,34.18l33.087-90.6a58.112,58.112,0,0,0-44.206,56.417" transform="translate(-863.207 -240.146)" fill="#f18e35"/>
      <path id="Path_1196" data-name="Path 1196" d="M933.63,239.244l-17.774,48.814h2.567c7.624,0,14.861-8.367,18.5-13.354,4.562-6.288,11.621-13.785,19.33-13.785,6.667,0,10.048,3.369,10.048,10.011,0,5.379-3.148,8.853-8.021,8.853-4.388,0-7.008-2.01-7.008-5.378a8.045,8.045,0,0,1,.818-3.573,4.733,4.733,0,0,0,.533-2.053c0-.454,0-1.076-1.774-1.076-2.458,0-5.473,3.525-10.59,9.756-5.122,6.35-9.1,10.234-12.568,12.222,6.741,1.224,10.914,5.31,12.414,12.171,1.285,6.015,2.458,12.072,3.592,17.93l.635,3.272c1.466,7.364,2.813,9.851,5.336,9.851,3.788,0,7.819-4.824,11.981-14.341l.322-.738,4.153,1.164-.4.944c-5.408,12.687-11.623,18.1-20.783,18.1-6.916,0-9.661-2.928-11.656-7.325-1.413-3.117-2.257-7.2-3.234-11.921-.469-2.266-.953-4.61-1.549-7.107-.535-2.238-.976-4.307-1.367-6.132-.969-4.544-1.67-7.827-2.912-9.818-1.527-2.394-3.088-3.537-7.819-3.537h-2.216l-17.573,50.345A58.089,58.089,0,1,0,933.63,239.244" transform="translate(-874.993 -239.237)" fill="#f18e35"/>
      <path id="Path_1197" data-name="Path 1197" d="M910.673,292.19c4.731,0,6.293,1.143,7.819,3.537,1.242,1.991,1.943,5.274,2.913,9.818.39,1.825.832,3.893,1.366,6.132.6,2.5,1.081,4.84,1.549,7.106.978,4.724,1.821,8.8,3.234,11.921,2,4.4,4.74,7.326,11.656,7.326,9.159,0,15.374-5.414,20.782-18.1l.4-.944-4.154-1.164-.322.738c-4.163,9.516-8.194,14.342-11.982,14.342-2.522,0-3.869-2.487-5.336-9.851l-.634-3.273c-1.134-5.858-2.307-11.915-3.592-17.93-1.5-6.861-5.673-10.946-12.414-12.17,3.465-1.988,7.445-5.873,12.568-12.223,5.117-6.231,8.132-9.756,10.59-9.756,1.774,0,1.774.623,1.774,1.077a4.731,4.731,0,0,1-.535,2.053,8.047,8.047,0,0,0-.817,3.574c0,3.367,2.62,5.378,7.009,5.378,4.871,0,8.019-3.475,8.019-8.853,0-6.644-3.381-10.012-10.046-10.012-7.709,0-14.768,7.5-19.331,13.786-3.635,4.987-10.872,13.354-18.5,13.354h-2.567l17.774-48.814c-.181,0-.363-.007-.546-.007a58.23,58.23,0,0,0-13.885,1.675l-33.088,90.6a58.42,58.42,0,0,0,10.5,11.031l17.571-50.345Z" transform="translate(-869.269 -239.233)" fill="#fff"/>
      <path id="Path_1198" data-name="Path 1198" d="M1130.566,339.687c.1.192.287.384.287.575,0,.766-.287,1.149-.956,1.149h-3.638a1.8,1.8,0,0,1-1.436-.574l-18.766-27.669L1092.463,326v13.691a1.639,1.639,0,0,1-1.629,1.723h-2.106a1.639,1.639,0,0,1-1.628-1.723V291.913a1.639,1.639,0,0,1,1.628-1.723h2.106a1.639,1.639,0,0,1,1.629,1.723v26.712l29.775-27.861a1.807,1.807,0,0,1,1.436-.575h4.5c.67,0,.957.383.957,1.149,0,.192-.191.383-.287.574l-18.669,17.424Z" transform="translate(-942.209 -257.214)"/>
      <path id="Path_1199" data-name="Path 1199" d="M1173.977,339.687a1.638,1.638,0,0,1-1.628,1.723h-2.106a1.638,1.638,0,0,1-1.628-1.723V291.818a1.638,1.638,0,0,1,1.723-1.628h31.212a1.638,1.638,0,0,1,1.723,1.628v1.723a1.638,1.638,0,0,1-1.723,1.628h-27.573v19.243h25.084a1.638,1.638,0,0,1,1.724,1.628v1.34a1.638,1.638,0,0,1-1.724,1.628h-25.084Z" transform="translate(-970.972 -257.214)"/>
      <path id="Path_1200" data-name="Path 1200" d="M1269.776,340.262a1.056,1.056,0,0,1-1.149,1.148h-2.681c-.957,0-1.532-.67-2.011-1.723l-5.456-15.128h-22.213l-5.457,15.128c-.479,1.052-1.054,1.723-2.011,1.723h-2.68a1.056,1.056,0,0,1-1.149-1.148,1.224,1.224,0,0,1,.1-.575l17.807-48.54a1.706,1.706,0,0,1,1.533-.958h5.934a1.705,1.705,0,0,1,1.532.958l17.808,48.54a1.215,1.215,0,0,1,.1.575m-13.116-20.68-9.287-25.274-9.287,25.274Z" transform="translate(-990.857 -257.214)"/>
      <path id="Path_1201" data-name="Path 1201" d="M1305.319,338.183a1.2,1.2,0,0,1-.861-1.245c0-.192,0-.479.765-2.105a1.7,1.7,0,0,1,1.532-1.246,2.631,2.631,0,0,1,.861.1,44.061,44.061,0,0,0,17.042,3.351c9.382,0,14.839-2.585,14.839-10.053,0-6.8-9.382-7.659-19.34-9.957-9.478-2.2-16.18-4.116-16.18-14.074,0-11.2,11.393-13.5,19.148-13.5h.575a89.454,89.454,0,0,1,17.807,2.009l.862.289a1.388,1.388,0,0,1,1.052,1.244,7.342,7.342,0,0,1-.573,2.2,1.836,1.836,0,0,1-1.532,1.34,1.642,1.642,0,0,1-.671-.1c-4.787-1.436-13.5-2.011-17.615-2.011-5.554,0-13.691,2.106-13.691,8.712,0,4.882,4.116,7.084,6.99,7.851,12.349,3.445,28.529,3.254,28.529,15.988,0,12.925-12.254,14.648-20.01,14.648-6.605,0-14.265-1.34-18.669-3.064Z" transform="translate(-1018.736 -256.953)"/>
      <path id="Path_1202" data-name="Path 1202" d="M1401.293,295.168v44.518a1.638,1.638,0,0,1-1.628,1.723h-2.106a1.637,1.637,0,0,1-1.628-1.723V295.168h-15.222a1.637,1.637,0,0,1-1.724-1.628v-1.723a1.639,1.639,0,0,1,1.724-1.628h35.711a1.638,1.638,0,0,1,1.723,1.628v1.723a1.637,1.637,0,0,1-1.723,1.628Z" transform="translate(-1045.203 -257.214)"/>
    </g>
  </g>
</svg>
