<svg xmlns="http://www.w3.org/2000/svg" width="21.935" height="21.865" viewBox="0 0 21.935 21.865">
  <g id="Component_15_1" data-name="Component 15 – 1" transform="translate(0.5 0.5)">
    <path id="Path_1249" data-name="Path 1249" d="M4965.056-484.484a8.035,8.035,0,0,0-11.363,0,8.035,8.035,0,0,0,0,11.363,8.033,8.033,0,0,0,10.868.452l6.5,6.5a.669.669,0,0,0,.946,0,.669.669,0,0,0,0-.947l-6.5-6.5A8.034,8.034,0,0,0,4965.056-484.484Zm-.947,10.417a6.7,6.7,0,0,1-9.47,0,6.7,6.7,0,0,1,0-9.47,6.7,6.7,0,0,1,9.47,0A6.7,6.7,0,0,1,4964.108-474.067Z" transform="translate(-4951.339 486.837)" stroke="#000" stroke-width="1"/>
  </g>
</svg>
